<mxfile host="app.diagrams.net" agent="Mozilla/5.0 (Windows NT 10.0; Win64; x64) AppleWebKit/537.36 (KHTML, like Gecko) Chrome/133.0.0.0 Safari/537.36" version="26.0.16">
  <diagram name="Page-1" id="bNl4_I2lK2GSQdaHhGYz">
    <mxGraphModel dx="1221" dy="1821" grid="1" gridSize="10" guides="1" tooltips="1" connect="1" arrows="1" fold="1" page="1" pageScale="1" pageWidth="827" pageHeight="1169" math="0" shadow="0">
      <root>
        <mxCell id="0" />
        <mxCell id="1" parent="0" />
        <mxCell id="GuFAkJnxW2u_bU8E2CUF-1" value="" style="whiteSpace=wrap;html=1;aspect=fixed;" vertex="1" parent="1">
          <mxGeometry x="120" y="-860" width="560" height="560" as="geometry" />
        </mxCell>
        <mxCell id="GuFAkJnxW2u_bU8E2CUF-3" value="HR" style="shape=umlActor;verticalLabelPosition=bottom;verticalAlign=top;html=1;outlineConnect=0;" vertex="1" parent="1">
          <mxGeometry x="20" y="-640" width="40" height="90" as="geometry" />
        </mxCell>
        <mxCell id="GuFAkJnxW2u_bU8E2CUF-4" value="Employee" style="shape=umlActor;verticalLabelPosition=bottom;verticalAlign=top;html=1;outlineConnect=0;" vertex="1" parent="1">
          <mxGeometry x="750" y="-660" width="30" height="80" as="geometry" />
        </mxCell>
        <mxCell id="GuFAkJnxW2u_bU8E2CUF-7" value="create employee profiles" style="ellipse;whiteSpace=wrap;html=1;" vertex="1" parent="1">
          <mxGeometry x="130" y="-840" width="120" height="80" as="geometry" />
        </mxCell>
        <mxCell id="GuFAkJnxW2u_bU8E2CUF-8" value="edit employee profiles" style="ellipse;whiteSpace=wrap;html=1;" vertex="1" parent="1">
          <mxGeometry x="130" y="-740" width="120" height="80" as="geometry" />
        </mxCell>
        <mxCell id="GuFAkJnxW2u_bU8E2CUF-9" value="view own profile" style="ellipse;whiteSpace=wrap;html=1;" vertex="1" parent="1">
          <mxGeometry x="530" y="-760" width="120" height="80" as="geometry" />
        </mxCell>
        <mxCell id="GuFAkJnxW2u_bU8E2CUF-14" value="analyze employee skills" style="ellipse;whiteSpace=wrap;html=1;" vertex="1" parent="1">
          <mxGeometry x="300" y="-770" width="120" height="80" as="geometry" />
        </mxCell>
        <mxCell id="GuFAkJnxW2u_bU8E2CUF-15" value="announce job vacancy" style="ellipse;whiteSpace=wrap;html=1;" vertex="1" parent="1">
          <mxGeometry x="130" y="-640" width="140" height="70" as="geometry" />
        </mxCell>
        <mxCell id="GuFAkJnxW2u_bU8E2CUF-16" value="compare employee skills with profiles" style="ellipse;whiteSpace=wrap;html=1;" vertex="1" parent="1">
          <mxGeometry x="300" y="-670" width="140" height="70" as="geometry" />
        </mxCell>
        <mxCell id="GuFAkJnxW2u_bU8E2CUF-17" value="identifying missing skills" style="ellipse;whiteSpace=wrap;html=1;" vertex="1" parent="1">
          <mxGeometry x="300" y="-580" width="140" height="70" as="geometry" />
        </mxCell>
        <mxCell id="GuFAkJnxW2u_bU8E2CUF-18" value="generate training recommondations" style="ellipse;whiteSpace=wrap;html=1;" vertex="1" parent="1">
          <mxGeometry x="290" y="-500" width="140" height="70" as="geometry" />
        </mxCell>
        <mxCell id="GuFAkJnxW2u_bU8E2CUF-19" value="diplay interactive dashboard" style="ellipse;whiteSpace=wrap;html=1;" vertex="1" parent="1">
          <mxGeometry x="300" y="-420" width="140" height="70" as="geometry" />
        </mxCell>
      </root>
    </mxGraphModel>
  </diagram>
</mxfile>
